<svg width="50" height="49" viewBox="0 0 50 49" fill="none" xmlns="http://www.w3.org/2000/svg">
<rect width="50" height="49" fill="#F5F5F5"/>
<rect x="-288" y="-259" width="3447" height="2255" stroke="black" stroke-width="4"/>
<g clip-path="url(#clip0_0_1)">
<rect width="1440" height="1805" transform="translate(-83 -20)" fill="white"/>
<g filter="url(#filter0_d_0_1)">
<rect x="-83" y="-20" width="1440" height="90" fill="#F0F0F0"/>
</g>
<path d="M24.5526 49C38.1127 49 49.1053 38.031 49.1053 24.5C49.1053 10.969 38.1127 0 24.5526 0C10.9926 0 0 10.969 0 24.5C0 38.031 10.9926 49 24.5526 49Z" fill="#0029FF"/>
<path d="M13.9131 26.1334C15.2692 26.1334 16.3684 25.0365 16.3684 23.6834C16.3684 22.3303 15.2692 21.2334 13.9131 21.2334C12.5571 21.2334 11.4579 22.3303 11.4579 23.6834C11.4579 25.0365 12.5571 26.1334 13.9131 26.1334Z" fill="white"/>
<path opacity="0.1" d="M15.55 19.6002C16.906 19.6002 18.0053 18.5033 18.0053 17.1502C18.0053 15.7971 16.906 14.7002 15.55 14.7002C14.194 14.7002 13.0947 15.7971 13.0947 17.1502C13.0947 18.5033 14.194 19.6002 15.55 19.6002Z" fill="white"/>
<path opacity="0.1" d="M15.55 32.6666C16.906 32.6666 18.0053 31.5697 18.0053 30.2166C18.0053 28.8635 16.906 27.7666 15.55 27.7666C14.194 27.7666 13.0947 28.8635 13.0947 30.2166C13.0947 31.5697 14.194 32.6666 15.55 32.6666Z" fill="white"/>
<path opacity="0.1" d="M35.1926 32.6666C36.5486 32.6666 37.6478 31.5697 37.6478 30.2166C37.6478 28.8635 36.5486 27.7666 35.1926 27.7666C33.8366 27.7666 32.7373 28.8635 32.7373 30.2166C32.7373 31.5697 33.8366 32.6666 35.1926 32.6666Z" fill="white"/>
<path opacity="0.1" d="M35.1926 19.6002C36.5486 19.6002 37.6478 18.5033 37.6478 17.1502C37.6478 15.7971 36.5486 14.7002 35.1926 14.7002C33.8366 14.7002 32.7373 15.7971 32.7373 17.1502C32.7373 18.5033 33.8366 19.6002 35.1926 19.6002Z" fill="white"/>
<path d="M20.4601 37.567C21.8162 37.567 22.9154 36.4701 22.9154 35.117C22.9154 33.7639 21.8162 32.667 20.4601 32.667C19.1041 32.667 18.0049 33.7639 18.0049 35.117C18.0049 36.4701 19.1041 37.567 20.4601 37.567Z" fill="white"/>
<path d="M30.2814 37.567C31.6374 37.567 32.7367 36.4701 32.7367 35.117C32.7367 33.7639 31.6374 32.667 30.2814 32.667C28.9254 32.667 27.8262 33.7639 27.8262 35.117C27.8262 36.4701 28.9254 37.567 30.2814 37.567Z" fill="white"/>
<path d="M36.8293 26.1334C38.1853 26.1334 39.2845 25.0365 39.2845 23.6834C39.2845 22.3303 38.1853 21.2334 36.8293 21.2334C35.4733 21.2334 34.374 22.3303 34.374 23.6834C34.374 25.0365 35.4733 26.1334 36.8293 26.1334Z" fill="white"/>
<path d="M25.371 26.1334C26.727 26.1334 27.8263 25.0365 27.8263 23.6834C27.8263 22.3303 26.727 21.2334 25.371 21.2334C24.015 21.2334 22.9158 22.3303 22.9158 23.6834C22.9158 25.0365 24.015 26.1334 25.371 26.1334Z" fill="white"/>
<path d="M30.2816 14.6998C31.6376 14.6998 32.7368 13.6029 32.7368 12.2498C32.7368 10.8967 31.6376 9.7998 30.2816 9.7998C28.9256 9.7998 27.8263 10.8967 27.8263 12.2498C27.8263 13.6029 28.9256 14.6998 30.2816 14.6998Z" fill="white"/>
<path d="M20.4601 14.6998C21.8162 14.6998 22.9154 13.6029 22.9154 12.2498C22.9154 10.8967 21.8162 9.7998 20.4601 9.7998C19.1041 9.7998 18.0049 10.8967 18.0049 12.2498C18.0049 13.6029 19.1041 14.6998 20.4601 14.6998Z" fill="white"/>
<path d="M13.9131 23.6836H25.371L30.2815 35.1169H20.4605" stroke="white"/>
<path d="M20.4609 12.25H30.282" stroke="white"/>
</g>
<defs>
<filter id="filter0_d_0_1" x="-87" y="-20" width="1448" height="98" filterUnits="userSpaceOnUse" color-interpolation-filters="sRGB">
<feFlood flood-opacity="0" result="BackgroundImageFix"/>
<feColorMatrix in="SourceAlpha" type="matrix" values="0 0 0 0 0 0 0 0 0 0 0 0 0 0 0 0 0 0 127 0" result="hardAlpha"/>
<feOffset dy="4"/>
<feGaussianBlur stdDeviation="2"/>
<feComposite in2="hardAlpha" operator="out"/>
<feColorMatrix type="matrix" values="0 0 0 0 0 0 0 0 0 0 0 0 0 0 0 0 0 0 0.25 0"/>
<feBlend mode="normal" in2="BackgroundImageFix" result="effect1_dropShadow_0_1"/>
<feBlend mode="normal" in="SourceGraphic" in2="effect1_dropShadow_0_1" result="shape"/>
</filter>
<clipPath id="clip0_0_1">
<rect width="1440" height="1805" fill="white" transform="translate(-83 -20)"/>
</clipPath>
</defs>
</svg>
